<svg width="912" height="190" viewBox="0 0 912 190" fill="none" xmlns="http://www.w3.org/2000/svg">
<path d="M800.53 123.567C800.53 114.454 802.065 105.9 805.135 97.9059C808.375 89.7517 812.98 82.7169 818.95 76.8011C824.918 70.7254 832.167 65.9289 840.693 62.4114C849.221 58.894 858.942 57.1353 869.857 57.1353C877.02 57.1353 883.585 57.7749 889.555 59.0538C895.523 60.1731 901.322 61.8519 906.949 64.0902L899.019 92.6297C895.438 91.3506 891.515 90.2314 887.252 89.2721C882.988 88.3128 878.213 87.8331 872.926 87.8331C861.671 87.8331 853.228 91.1108 847.601 97.6661C842.144 104.221 839.415 112.855 839.415 123.567C839.415 134.919 841.973 143.713 847.089 149.948C852.375 156.184 861.5 159.302 874.462 159.302C879.065 159.302 884.012 158.901 889.298 158.102C894.585 157.302 899.446 156.024 903.88 154.265L909.252 183.524C904.818 185.283 899.275 186.801 892.624 188.081C885.973 189.359 878.64 189.999 870.624 189.999C858.345 189.999 847.771 188.32 838.902 184.962C830.034 181.446 822.701 176.729 816.903 170.813C811.275 164.897 807.097 157.943 804.368 149.948C801.81 141.794 800.53 133 800.53 123.567Z" fill="white"/>
<path d="M669.913 64.8105C676.393 63.0518 684.75 61.4529 694.983 60.0141C705.215 58.4152 715.959 57.6157 727.216 57.6157C738.642 57.6157 748.106 59.0547 755.611 61.9327C763.285 64.6506 769.34 68.5679 773.774 73.6842C778.208 78.8004 781.362 84.8761 783.239 91.911C785.115 98.9459 786.053 106.78 786.053 115.414V186.643H747.935V119.731C747.935 108.219 746.316 100.065 743.076 95.2686C739.836 90.472 733.781 88.0738 724.913 88.0738C722.184 88.0738 719.284 88.2337 716.215 88.5534C713.145 88.7133 710.416 88.9531 708.029 89.2728V186.643H669.913V64.8105Z" fill="white"/>
<path d="M651.856 186.642H613.738V60.4927H651.856V186.642ZM655.437 24.039C655.437 30.5943 653.134 35.7905 648.529 39.6277C644.095 43.305 638.808 45.1438 632.669 45.1438C626.529 45.1438 621.157 43.305 616.552 39.6277C612.118 35.7905 609.901 30.5943 609.901 24.039C609.901 17.4838 612.118 12.3674 616.552 8.69008C621.157 4.85284 617.32 28.3556 617.32 28.3556C617.32 28.3556 644.095 4.85284 648.529 8.69008C653.134 12.3674 655.437 17.4838 655.437 24.039Z" fill="white"/>
<path d="M594.295 189.04C583.209 188.88 574.171 187.762 567.179 185.683C560.357 183.605 554.9 180.727 550.806 177.049C546.884 173.212 544.156 168.655 542.621 163.38C541.256 157.943 540.574 151.867 540.574 145.152V6.29247L578.69 0.536621V137.958C578.69 141.155 578.946 144.033 579.457 146.592C579.97 149.15 580.908 151.308 582.271 153.067C583.807 154.825 585.938 156.264 588.667 157.384C591.396 158.502 595.063 159.223 599.667 159.542L594.295 189.04Z" fill="white"/>
<path d="M441.065 29.0785L479.181 23.3228V60.4958H524.972V90.2344H479.181V134.602C479.181 142.117 480.546 148.113 483.275 152.589C486.173 157.066 491.887 159.304 500.413 159.304C504.507 159.304 508.685 158.985 512.948 158.345C517.382 157.545 521.39 156.507 524.972 155.227L530.344 183.047C525.739 184.806 520.623 186.325 514.995 187.605C509.366 188.883 502.46 189.522 494.274 189.522C483.871 189.522 475.258 188.244 468.437 185.686C461.615 182.967 456.158 179.29 452.064 174.654C447.972 169.857 445.072 164.1 443.367 157.385C441.832 150.67 441.065 143.236 441.065 135.082V29.0785Z" fill="white"/>
<path d="M373.785 160.98C380.777 160.98 385.724 160.341 388.622 159.061C391.522 157.783 392.972 155.305 392.972 151.627C392.972 148.75 391.096 146.272 387.344 144.192C383.592 141.955 377.878 139.476 370.204 136.758C364.235 134.679 358.778 132.521 353.831 130.282C349.057 128.044 344.963 125.406 341.553 122.368C338.142 119.171 335.499 115.413 333.623 111.096C331.747 106.779 330.808 101.583 330.808 95.5075C330.808 83.6761 335.499 74.3229 344.878 67.4478C354.258 60.5728 367.134 57.1353 383.506 57.1353C391.692 57.1353 399.537 57.8548 407.042 59.2937C414.545 60.5728 420.515 62.0117 424.949 63.6106L418.297 91.4305C413.863 89.9915 409.003 88.7124 403.716 87.5933C398.599 86.4741 392.801 85.9146 386.32 85.9146C374.382 85.9146 368.413 89.0322 368.413 95.2677C368.413 96.7067 368.669 97.9858 369.18 99.105C369.693 100.224 370.715 101.343 372.251 102.463C373.785 103.422 375.832 104.541 378.39 105.82C381.119 106.939 384.53 108.218 388.622 109.657C396.979 112.535 403.886 115.413 409.343 118.291C414.801 121.009 419.064 124.047 422.134 127.405C425.374 130.602 427.592 134.2 428.786 138.197C430.15 142.193 430.832 146.831 430.832 152.107C430.832 164.578 425.801 174.01 415.739 180.406C405.847 186.801 391.778 189.999 373.529 189.999C361.592 189.999 351.615 189.041 343.6 187.122C335.754 185.203 330.296 183.604 327.227 182.325L333.623 153.306C340.104 155.704 346.754 157.623 353.577 159.061C360.398 160.341 367.134 160.98 373.785 160.98Z" fill="white"/>
<path d="M316.994 182.324C310.513 184.083 302.157 185.682 291.924 187.12C281.691 188.719 270.946 189.518 259.691 189.518C248.265 189.518 238.714 188.08 231.04 185.201C223.536 182.324 217.567 178.326 213.133 173.211C208.699 167.934 205.543 161.698 203.667 154.504C201.792 147.308 200.854 139.395 200.854 130.761V60.4917H238.97V126.444C238.97 137.956 240.59 146.27 243.831 151.387C247.071 156.502 253.125 159.06 261.993 159.06C264.722 159.06 267.621 158.981 270.692 158.821C273.761 158.501 276.489 158.18 278.877 157.862V60.4917H316.994V182.324Z" fill="white"/>
<path d="M184.225 92.1493C180.815 91.3498 176.806 90.5504 172.203 89.7509C167.598 88.7917 162.652 88.312 157.365 88.312C154.978 88.312 152.078 88.5518 148.668 89.0315C145.426 89.3513 142.954 89.7509 141.249 90.2307V186.641H103.132V67.2073C109.954 64.9688 117.97 62.8904 127.179 60.9718C136.559 58.8933 146.962 57.854 158.388 57.854C160.435 57.854 162.908 58.0139 165.807 58.3336C168.706 58.4935 171.605 58.8132 174.505 59.293C177.404 59.6127 180.304 60.0923 183.202 60.732C186.102 61.2116 188.574 61.8511 190.621 62.6506L184.225 92.1493Z" fill="white"/>
<path d="M3.61902 29.0785L41.7356 23.3228V60.4958H87.5265V90.2344H41.7356V134.602C41.7356 142.117 43.0998 148.113 45.8286 152.589C48.7278 157.066 54.441 159.304 62.9682 159.304C67.0612 159.304 71.2395 158.985 75.5032 158.345C79.9372 157.545 83.9451 156.507 87.5265 155.227L92.8986 183.047C88.2939 184.806 83.1776 186.325 77.5497 187.605C71.9217 188.883 65.0147 189.522 56.8286 189.522C46.4254 189.522 37.8129 188.244 30.9913 185.686C24.1696 182.967 18.7122 179.29 14.619 174.654C10.526 169.857 7.6268 164.1 5.92136 157.385C4.38646 150.67 3.61902 143.236 3.61902 135.082V29.0785Z" fill="white"/>
</svg>
