<svg width="500" height="500" viewBox="0 0 500 500" fill="none" xmlns="http://www.w3.org/2000/svg">
<rect width="500" height="500" rx="50" fill="#001028"/>
<path d="M191 142.035L240.951 134V185.89H300.96V227.403H240.951V289.337C240.951 299.827 242.739 308.197 246.315 314.444C250.115 320.694 257.602 323.818 268.777 323.818C274.14 323.818 279.616 323.373 285.203 322.479C291.014 321.363 296.266 319.914 300.96 318.127L308 356.962C301.966 359.417 295.261 361.537 287.885 363.323C280.51 365.108 271.458 366 260.731 366C247.097 366 235.811 364.215 226.871 360.644C217.931 356.85 210.779 351.716 205.415 345.244C200.052 338.549 196.252 330.513 194.017 321.139C192.006 311.766 191 301.388 191 290.006V142.035Z" fill="#EFF3F7"/>
</svg>
