<svg width="822" height="178" viewBox="0 0 822 178" fill="none" xmlns="http://www.w3.org/2000/svg">
<path d="M721.53 115.763C721.53 107.225 722.913 99.2116 725.681 91.7222C728.601 84.0831 732.751 77.4925 738.132 71.9504C743.512 66.2584 750.045 61.7648 757.73 58.4695C765.416 55.1743 774.177 53.5266 784.015 53.5266C790.471 53.5266 796.388 54.1258 801.769 55.324C807.149 56.3726 812.376 57.9453 817.447 60.0423L810.3 86.7793C807.072 85.581 803.536 84.5324 799.693 83.6338C795.851 82.735 791.546 82.2857 786.781 82.2857C776.637 82.2857 769.028 85.3563 763.956 91.4976C759.037 97.6388 756.577 105.727 756.577 115.763C756.577 126.398 758.883 134.637 763.494 140.478C768.259 146.32 776.483 149.24 788.166 149.24C792.315 149.24 796.773 148.865 801.538 148.116C806.303 147.367 810.685 146.17 814.681 144.522L819.523 171.933C815.527 173.58 810.531 175.003 804.535 176.202C798.541 177.4 791.931 177.999 784.707 177.999C773.64 177.999 764.109 176.426 756.116 173.28C748.123 169.986 741.513 165.567 736.287 160.025C731.214 154.482 727.449 147.968 724.989 140.478C722.684 132.839 721.53 124.6 721.53 115.763Z" fill="#001028"/>
<path d="M603.804 60.7172C609.644 59.0695 617.176 57.5716 626.4 56.2237C635.622 54.7258 645.306 53.9768 655.451 53.9768C665.75 53.9768 674.28 55.3249 681.044 58.0211C687.961 60.5674 693.419 64.2372 697.415 69.0304C701.412 73.8236 704.255 79.5155 705.946 86.1061C707.637 92.6966 708.482 100.036 708.482 108.125V174.855H674.126V112.169C674.126 101.384 672.666 93.7452 669.746 89.2516C666.826 84.758 661.368 82.5112 653.375 82.5112C650.916 82.5112 648.303 82.661 645.536 82.9605C642.769 83.1103 640.31 83.335 638.158 83.6345V174.855H603.804V60.7172Z" fill="#001028"/>
<path d="M587.527 174.854H553.172V56.6722H587.527V174.854ZM590.755 22.5209C590.755 28.6622 588.68 33.5302 584.529 37.125C580.533 40.5701 575.768 42.2928 570.234 42.2928C564.701 42.2928 559.859 40.5701 555.708 37.125C551.712 33.5302 549.713 28.6622 549.713 22.5209C549.713 16.3796 551.712 11.5865 555.708 8.14136C559.859 4.54648 556.4 26.5648 556.4 26.5648C556.4 26.5648 580.533 4.54648 584.529 8.14136C588.68 11.5865 590.755 16.3796 590.755 22.5209Z" fill="#001028"/>
<path d="M536.087 176.921C525.915 176.789 517.621 175.868 511.205 174.154C504.945 172.442 499.937 170.07 496.181 167.039C492.582 163.877 490.078 160.121 488.67 155.774C487.418 151.294 486.792 146.287 486.792 140.753V26.3191L521.768 21.5757V134.824C521.768 137.459 522.003 139.831 522.472 141.939C522.942 144.047 523.803 145.826 525.054 147.275C526.463 148.725 528.419 149.91 530.923 150.833C533.427 151.754 536.791 152.348 541.017 152.611L536.087 176.921Z" fill="#001028"/>
<path d="M397.539 27.2419L431.893 21.8496V56.6749H473.166V84.5352H431.893V126.101C431.893 133.141 433.124 138.759 435.583 142.952C438.195 147.146 443.345 149.243 451.03 149.243C454.72 149.243 458.486 148.944 462.328 148.344C466.325 147.595 469.938 146.622 473.166 145.423L478.008 171.486C473.857 173.134 469.246 174.557 464.173 175.756C459.1 176.954 452.875 177.552 445.497 177.552C436.121 177.552 428.358 176.355 422.21 173.958C416.061 171.411 411.143 167.966 407.453 163.623C403.764 159.129 401.151 153.736 399.614 147.445C398.231 141.154 397.539 134.189 397.539 126.55V27.2419Z" fill="#001028"/>
<path d="M336.898 150.813C343.2 150.813 347.659 150.214 350.271 149.015C352.884 147.818 354.192 145.496 354.192 142.05C354.192 139.355 352.501 137.033 349.119 135.085C345.737 132.989 340.587 130.667 333.67 128.121C328.291 126.173 323.372 124.151 318.913 122.054C314.61 119.957 310.921 117.485 307.847 114.64C304.772 111.644 302.39 108.124 300.699 104.08C299.008 100.035 298.163 95.1673 298.163 89.4754C298.163 78.3912 302.39 69.6287 310.844 63.1878C319.298 56.747 330.903 53.5266 345.66 53.5266C353.038 53.5266 360.109 54.2007 366.873 55.5487C373.635 56.747 379.016 58.0951 383.013 59.593L377.017 85.6559C373.021 84.3078 368.641 83.1094 363.876 82.061C359.263 81.0125 354.038 80.4883 348.196 80.4883C337.436 80.4883 332.056 83.409 332.056 89.2507C332.056 90.5988 332.287 91.7971 332.748 92.8457C333.21 93.8941 334.131 94.9426 335.515 95.9912C336.898 96.8898 338.743 97.9384 341.049 99.1367C343.508 100.185 346.582 101.383 350.271 102.732C357.803 105.428 364.028 108.124 368.947 110.82C373.866 113.366 377.709 116.212 380.476 119.358C383.396 122.354 385.395 125.724 386.471 129.468C387.701 133.213 388.315 137.557 388.315 142.5C388.315 154.184 383.781 163.02 374.712 169.012C365.796 175.003 353.115 177.999 336.667 177.999C325.908 177.999 316.916 177.101 309.691 175.303C302.62 173.505 297.701 172.008 294.935 170.81L300.699 143.623C306.54 145.87 312.535 147.667 318.684 149.015C324.832 150.214 330.903 150.813 336.898 150.813Z" fill="#001028"/>
<path d="M285.712 170.809C279.87 172.457 272.339 173.954 263.116 175.302C253.892 176.8 244.208 177.549 234.064 177.549C223.765 177.549 215.157 176.201 208.24 173.504C201.476 170.809 196.097 167.063 192.1 162.271C188.104 157.328 185.259 151.486 183.568 144.746C181.879 138.005 181.033 130.591 181.033 122.502V56.6711H215.388V118.458C215.388 129.243 216.848 137.032 219.769 141.825C222.689 146.617 228.146 149.014 236.139 149.014C238.598 149.014 241.211 148.94 243.979 148.79C246.745 148.49 249.204 148.19 251.356 147.891V56.6711H285.712V170.809Z" fill="#001028"/>
<path d="M166.046 86.3294C162.972 85.5805 159.359 84.8316 155.21 84.0826C151.059 83.1839 146.601 82.7345 141.836 82.7345C139.684 82.7345 137.071 82.9591 133.997 83.4086C131.075 83.7081 128.847 84.0826 127.31 84.532V174.853H92.9551V62.9628C99.1036 60.8657 106.328 58.9185 114.629 57.121C123.083 55.1739 132.46 54.2002 142.758 54.2002C144.603 54.2002 146.832 54.35 149.445 54.6495C152.057 54.7993 154.671 55.0988 157.284 55.5483C159.898 55.8478 162.511 56.2972 165.123 56.8964C167.737 57.3457 169.965 57.9448 171.81 58.6938L166.046 86.3294Z" fill="#001028"/>
<path d="M3.26172 27.2419L37.6168 21.8496V56.6749H78.8889V84.5352H37.6168V126.101C37.6168 133.141 38.8464 138.759 41.3058 142.952C43.919 147.146 49.0684 149.243 56.7541 149.243C60.4432 149.243 64.2091 148.944 68.052 148.344C72.0485 147.595 75.6609 146.622 78.8889 145.423L83.7308 171.486C79.5805 173.134 74.9691 174.557 69.8966 175.756C64.8241 176.954 58.5986 177.552 51.2203 177.552C41.8438 177.552 34.0812 176.355 27.9328 173.958C21.7843 171.411 16.8654 167.966 13.1762 163.623C9.48712 159.129 6.87399 153.736 5.33685 147.445C3.95343 141.154 3.26172 134.189 3.26172 126.55V27.2419Z" fill="#001028"/>
</svg>
