<svg width="500" height="500" viewBox="0 0 500 500" fill="none" xmlns="http://www.w3.org/2000/svg">
<rect width="500" height="500" rx="50" fill="#544DDC"/>
<path d="M164 91.8094L237.433 80V156.27H325.65V217.286H237.433V308.318C237.433 323.737 240.061 336.039 245.318 345.222C250.904 354.408 261.91 359 278.338 359C286.223 359 294.273 358.346 302.487 357.031C311.029 355.391 318.751 353.261 325.65 350.635L336 407.715C327.129 411.324 317.272 414.44 306.43 417.065C295.587 419.688 282.281 421 266.51 421C246.468 421 229.876 418.377 216.734 413.128C203.591 407.551 193.077 400.005 185.192 390.493C177.307 380.652 171.721 368.84 168.436 355.063C165.478 341.285 164 326.031 164 309.302V91.8094Z" fill="#EFF3F7"/>
</svg>
