<svg width="822" height="178" viewBox="0 0 822 178" fill="none" xmlns="http://www.w3.org/2000/svg">
<path d="M721.531 115.763C721.531 107.225 722.914 99.2118 725.681 91.7225C728.601 84.0833 732.752 77.4928 738.133 71.9506C743.512 66.2587 750.045 61.7651 757.73 58.4698C765.416 55.1745 774.178 53.5269 784.016 53.5269C790.472 53.5269 796.389 54.1261 801.77 55.3243C807.149 56.3728 812.376 57.9456 817.448 60.0425L810.3 86.7795C807.072 85.5812 803.536 84.5327 799.694 83.634C795.851 82.7353 791.547 82.2859 786.782 82.2859C776.637 82.2859 769.028 85.3566 763.956 91.4978C759.037 97.6391 756.578 105.728 756.578 115.763C756.578 126.398 758.883 134.637 763.494 140.478C768.259 146.32 776.483 149.241 788.166 149.241C792.315 149.241 796.774 148.865 801.539 148.117C806.304 147.368 810.685 146.17 814.682 144.522L819.524 171.933C815.527 173.581 810.531 175.003 804.536 176.202C798.542 177.4 791.932 177.999 784.707 177.999C773.64 177.999 764.109 176.426 756.116 173.281C748.123 169.986 741.513 165.567 736.288 160.025C731.215 154.483 727.449 147.968 724.99 140.478C722.684 132.839 721.531 124.601 721.531 115.763Z" fill="#544DDC"/>
<path d="M603.803 60.7169C609.643 59.0693 617.176 57.5714 626.399 56.2234C635.621 54.7256 645.305 53.9766 655.451 53.9766C665.749 53.9766 674.28 55.3247 681.044 58.0208C687.96 60.5671 693.418 64.237 697.415 69.0301C701.411 73.8233 704.254 79.5152 705.945 86.1058C707.636 92.6964 708.482 100.036 708.482 108.124V174.854H674.126V112.169C674.126 101.384 672.666 93.7449 669.746 89.2513C666.826 84.7577 661.368 82.511 653.375 82.511C650.916 82.511 648.302 82.6608 645.536 82.9603C642.769 83.1101 640.309 83.3347 638.158 83.6343V174.854H603.803V60.7169Z" fill="#544DDC"/>
<path d="M587.527 174.854H553.172V56.6722H587.527V174.854ZM590.755 22.5209C590.755 28.6622 588.68 33.5302 584.529 37.125C580.533 40.5701 575.768 42.2928 570.234 42.2928C564.701 42.2928 559.859 40.5701 555.708 37.125C551.712 33.5302 549.713 28.6622 549.713 22.5209C549.713 16.3796 551.712 11.5865 555.708 8.14136C559.859 4.54648 556.4 26.5648 556.4 26.5648C556.4 26.5648 580.533 4.54648 584.529 8.14136C588.68 11.5865 590.755 16.3796 590.755 22.5209Z" fill="#544DDC"/>
<path d="M536.087 176.921C525.914 176.789 517.62 175.868 511.204 174.154C504.945 172.442 499.937 170.07 496.18 167.039C492.582 163.877 490.078 160.121 488.67 155.774C487.417 151.294 486.792 146.287 486.792 140.753V26.3191L521.767 21.5757V134.824C521.767 137.459 522.002 139.831 522.471 141.939C522.941 144.047 523.802 145.826 525.053 147.275C526.463 148.725 528.418 149.91 530.922 150.833C533.426 151.754 536.791 152.348 541.016 152.611L536.087 176.921Z" fill="#544DDC"/>
<path d="M397.539 27.2419L431.893 21.8496V56.6749H473.165V84.5352H431.893V126.101C431.893 133.141 433.123 138.759 435.583 142.952C438.195 147.146 443.345 149.243 451.03 149.243C454.72 149.243 458.485 148.944 462.328 148.344C466.324 147.595 469.937 146.622 473.165 145.423L478.007 171.486C473.857 173.134 469.246 174.557 464.173 175.756C459.1 176.954 452.875 177.552 445.496 177.552C436.12 177.552 428.357 176.355 422.209 173.958C416.061 171.411 411.142 167.966 407.452 163.623C403.764 159.129 401.15 153.736 399.613 147.445C398.23 141.154 397.539 134.189 397.539 126.55V27.2419Z" fill="#544DDC"/>
<path d="M336.899 150.813C343.201 150.813 347.659 150.214 350.271 149.015C352.885 147.818 354.192 145.496 354.192 142.051C354.192 139.355 352.501 137.034 349.119 135.086C345.737 132.989 340.587 130.667 333.671 128.121C328.291 126.173 323.372 124.151 318.914 122.054C314.611 119.957 310.921 117.486 307.847 114.64C304.773 111.644 302.39 108.124 300.7 104.08C299.009 100.036 298.163 95.1675 298.163 89.4756C298.163 78.3914 302.39 69.629 310.844 63.1881C319.299 56.7473 330.903 53.5269 345.66 53.5269C353.039 53.5269 360.109 54.201 366.873 55.5489C373.636 56.7473 379.017 58.0954 383.013 59.5932L377.018 85.6561C373.021 84.308 368.641 83.1097 363.876 82.0613C359.264 81.0127 354.038 80.4885 348.197 80.4885C337.436 80.4885 332.057 83.4092 332.057 89.2509C332.057 90.599 332.288 91.7974 332.748 92.8459C333.21 93.8943 334.131 94.9429 335.516 95.9914C336.899 96.8901 338.744 97.9386 341.049 99.1369C343.509 100.185 346.583 101.384 350.271 102.732C357.804 105.428 364.029 108.124 368.948 110.82C373.867 113.367 377.709 116.213 380.477 119.358C383.397 122.354 385.396 125.724 386.472 129.469C387.701 133.213 388.316 137.557 388.316 142.501C388.316 154.184 383.782 163.02 374.712 169.012C365.797 175.003 353.116 177.999 336.668 177.999C325.909 177.999 316.916 177.101 309.692 175.304C302.62 173.506 297.701 172.008 294.935 170.81L300.7 143.623C306.541 145.87 312.535 147.668 318.684 149.015C324.832 150.214 330.903 150.813 336.899 150.813Z" fill="#544DDC"/>
<path d="M285.712 170.809C279.87 172.456 272.339 173.954 263.116 175.302C253.892 176.8 244.208 177.548 234.064 177.548C223.765 177.548 215.157 176.201 208.24 173.504C201.476 170.809 196.097 167.063 192.1 162.271C188.104 157.328 185.259 151.485 183.568 144.746C181.879 138.004 181.033 130.591 181.033 122.502V56.6709H215.388V118.458C215.388 129.243 216.848 137.032 219.769 141.825C222.689 146.617 228.146 149.014 236.139 149.014C238.598 149.014 241.211 148.94 243.979 148.79C246.745 148.49 249.204 148.19 251.356 147.891V56.6709H285.712V170.809Z" fill="#544DDC"/>
<path d="M166.045 86.3294C162.971 85.5805 159.358 84.8316 155.209 84.0826C151.059 83.1839 146.6 82.7345 141.835 82.7345C139.684 82.7345 137.07 82.9591 133.996 83.4086C131.075 83.7081 128.847 84.0826 127.309 84.532V174.853H92.9546V62.9628C99.1032 60.8657 106.328 58.9185 114.628 57.121C123.082 55.1739 132.459 54.2002 142.758 54.2002C144.603 54.2002 146.831 54.35 149.445 54.6495C152.057 54.7993 154.67 55.0988 157.284 55.5483C159.897 55.8478 162.511 56.2972 165.123 56.8964C167.736 57.3457 169.965 57.9448 171.81 58.6938L166.045 86.3294Z" fill="#544DDC"/>
<path d="M3.26172 27.2419L37.6168 21.8496V56.6749H78.8889V84.5352H37.6168V126.101C37.6168 133.141 38.8464 138.759 41.3058 142.952C43.919 147.146 49.0684 149.243 56.7541 149.243C60.4432 149.243 64.2091 148.944 68.052 148.344C72.0485 147.595 75.6609 146.622 78.8889 145.423L83.7308 171.486C79.5805 173.134 74.9691 174.557 69.8966 175.756C64.8241 176.954 58.5986 177.552 51.2203 177.552C41.8438 177.552 34.0812 176.355 27.9328 173.958C21.7843 171.411 16.8654 167.966 13.1762 163.623C9.48712 159.129 6.87399 153.736 5.33685 147.445C3.95343 141.154 3.26172 134.189 3.26172 126.55V27.2419Z" fill="#544DDC"/>
</svg>
