<svg width="144" height="30" viewBox="0 0 144 30" fill="none" xmlns="http://www.w3.org/2000/svg">
<g clip-path="url(#clip0_1319_157)">
<path d="M126.4 19.5107C126.4 18.0718 126.642 16.7212 127.127 15.4589C127.638 14.1715 128.365 13.0607 129.308 12.1266C130.25 11.1673 131.395 10.4099 132.741 9.85456C134.088 9.29918 135.622 9.02148 137.346 9.02148C138.477 9.02148 139.513 9.12248 140.456 9.32442C141.398 9.50114 142.314 9.76621 143.203 10.1196L141.95 14.6259C141.385 14.4239 140.765 14.2472 140.092 14.0957C139.419 13.9442 138.665 13.8685 137.83 13.8685C136.053 13.8685 134.72 14.386 133.832 15.4211C132.97 16.4561 132.539 17.8193 132.539 19.5107C132.539 21.3031 132.943 22.6917 133.751 23.6761C134.586 24.6608 136.026 25.153 138.073 25.153C138.8 25.153 139.581 25.0898 140.416 24.9636C141.25 24.8374 142.018 24.6355 142.718 24.3578L143.566 28.9776C142.866 29.2553 141.991 29.4951 140.941 29.6971C139.891 29.899 138.733 29.9999 137.467 29.9999C135.528 29.9999 133.859 29.7349 132.458 29.2047C131.058 28.6495 129.9 27.9046 128.985 26.9706C128.096 26.0365 127.436 24.9385 127.005 23.6761C126.602 22.3887 126.4 21.0002 126.4 19.5107Z" fill="#F0F0F0"/>
<path d="M105.776 10.2337C106.799 9.95598 108.118 9.70353 109.734 9.47634C111.35 9.22389 113.046 9.09766 114.824 9.09766C116.628 9.09766 118.122 9.32486 119.307 9.77928C120.519 10.2084 121.475 10.8269 122.175 11.6348C122.875 12.4426 123.373 13.4019 123.669 14.5127C123.965 15.6235 124.114 16.8605 124.114 18.2237V29.4703H118.095V18.9053C118.095 17.0877 117.839 15.8002 117.328 15.0428C116.816 14.2855 115.86 13.9068 114.46 13.9068C114.029 13.9068 113.571 13.9321 113.087 13.9826C112.602 14.0078 112.171 14.0457 111.794 14.0961V29.4703H105.776V10.2337Z" fill="#F0F0F0"/>
<path d="M102.925 29.4702H96.9061V9.55189H102.925V29.4702ZM103.49 3.79605C103.49 4.83109 103.126 5.65155 102.399 6.25742C101.699 6.83805 100.865 7.12838 99.8951 7.12838C98.9258 7.12838 98.0775 6.83805 97.3505 6.25742C96.6503 5.65155 96.3002 4.83109 96.3002 3.79605C96.3002 2.761 96.6503 1.95316 97.3505 1.37253C98.0775 0.76665 97.4716 4.4776 97.4716 4.4776C97.4716 4.4776 101.699 0.76665 102.399 1.37253C103.126 1.95316 103.49 2.761 103.49 3.79605Z" fill="#F0F0F0"/>
<path d="M93.836 29.8487C92.0856 29.8234 90.6584 29.6469 89.5544 29.3186C88.4774 28.9905 87.6157 28.536 86.9693 27.9553C86.3501 27.3495 85.9192 26.6299 85.677 25.797C85.4614 24.9386 85.3538 23.9792 85.3538 22.9189V0.993779L91.372 0.0849609V21.783C91.372 22.2879 91.4125 22.7424 91.4932 23.1463C91.5741 23.5502 91.7222 23.8909 91.9375 24.1686C92.18 24.4464 92.5165 24.6735 92.9474 24.8503C93.3782 25.0269 93.9572 25.1406 94.6843 25.191L93.836 29.8487Z" fill="#F0F0F0"/>
<path d="M69.6418 4.59142L75.6601 3.68262V9.55205H82.8903V14.2476H75.6601V21.2531C75.6601 22.4397 75.8757 23.3864 76.3065 24.0931C76.7641 24.8 77.6663 25.1534 79.0126 25.1534C79.659 25.1534 80.3186 25.103 80.9918 25.0019C81.6919 24.8757 82.3248 24.7117 82.8903 24.5097L83.7385 28.9023C83.0114 29.18 82.2037 29.4198 81.315 29.6219C80.4263 29.8237 79.3358 29.9247 78.0432 29.9247C76.4007 29.9247 75.0407 29.7228 73.9637 29.3189C72.8866 28.8897 72.0249 28.309 71.3785 27.577C70.7324 26.8197 70.2745 25.9107 70.0053 24.8504C69.763 23.7901 69.6418 22.6162 69.6418 21.3288V4.59142Z" fill="#F0F0F0"/>
<path d="M59.0188 25.4181C60.1228 25.4181 60.9038 25.3171 61.3614 25.1151C61.8193 24.9132 62.0483 24.5219 62.0483 23.9412C62.0483 23.4869 61.7521 23.0956 61.1596 22.7674C60.5671 22.414 59.665 22.0227 58.4533 21.5935C57.5109 21.2653 56.6492 20.9245 55.8682 20.571C55.1143 20.2176 54.4679 19.8011 53.9294 19.3214C53.3909 18.8165 52.9735 18.2233 52.6773 17.5417C52.3811 16.86 52.233 16.0396 52.233 15.0803C52.233 13.2121 52.9735 11.7353 54.4545 10.6498C55.9356 9.56425 57.9685 9.02148 60.5537 9.02148C61.8462 9.02148 63.0849 9.1351 64.2698 9.36228C65.4545 9.56425 66.3971 9.79146 67.0972 10.0439L66.0469 14.4365C65.3468 14.2093 64.5795 14.0074 63.7447 13.8307C62.9367 13.6539 62.0213 13.5656 60.998 13.5656C59.113 13.5656 58.1706 14.0578 58.1706 15.0424C58.1706 15.2696 58.211 15.4716 58.2917 15.6483C58.3726 15.825 58.534 16.0017 58.7765 16.1784C59.0188 16.3299 59.342 16.5066 59.7459 16.7086C60.1767 16.8853 60.7153 17.0872 61.3614 17.3145C62.681 17.7689 63.7715 18.2233 64.6332 18.6777C65.4949 19.1068 66.1681 19.5865 66.6529 20.1166C67.1644 20.6215 67.5146 21.1896 67.7031 21.8206C67.9185 22.4517 68.0261 23.1839 68.0261 24.0171C68.0261 25.9861 67.2318 27.4754 65.643 28.4854C64.0812 29.4951 61.8597 29.9999 58.9783 29.9999C57.0935 29.9999 55.5182 29.8486 54.2526 29.5456C53.0138 29.2426 52.1521 28.9902 51.6675 28.7884L52.6773 24.2063C53.7006 24.5849 54.7507 24.8879 55.8279 25.1151C56.905 25.3171 57.9685 25.4181 59.0188 25.4181Z" fill="#F0F0F0"/>
<path d="M50.0517 28.7884C49.0284 29.0662 47.7091 29.3186 46.0933 29.5457C44.4775 29.7982 42.7811 29.9244 41.0039 29.9244C39.1998 29.9244 37.6917 29.6972 36.48 29.2427C35.2951 28.7884 34.3527 28.1572 33.6526 27.3495C32.9525 26.5164 32.4542 25.5317 32.158 24.3958C31.862 23.2597 31.7139 22.0102 31.7139 20.6469V9.55176H37.7322V19.9653C37.7322 21.783 37.9879 23.0957 38.4997 23.9036C39.0112 24.7112 39.9671 25.1152 41.3674 25.1152C41.7982 25.1152 42.256 25.1027 42.7408 25.0774C43.2254 25.0269 43.6563 24.9763 44.0332 24.9259V9.55176H50.0517V28.7884Z" fill="#F0F0F0"/>
<path d="M29.0882 14.5498C28.5497 14.4236 27.9168 14.2974 27.19 14.1711C26.4629 14.0197 25.6818 13.9439 24.8471 13.9439C24.4702 13.9439 24.0124 13.9818 23.4738 14.0575C22.9621 14.108 22.5717 14.1711 22.3024 14.2469V29.4695H16.2841V10.6116C17.3612 10.2582 18.6268 9.92998 20.0809 9.62704C21.5619 9.29887 23.2046 9.13477 25.0087 9.13477C25.3319 9.13477 25.7223 9.16001 26.1801 9.21049C26.6377 9.23574 27.0956 9.28622 27.5534 9.36197C28.0112 9.41246 28.469 9.48819 28.9266 9.58918C29.3845 9.66491 29.7749 9.76588 30.0981 9.89212L29.0882 14.5498Z" fill="#F0F0F0"/>
<path d="M0.571411 4.59142L6.58981 3.68262V9.55205H13.82V14.2476H6.58981V21.2531C6.58981 22.4397 6.80522 23.3864 7.23607 24.0931C7.69386 24.8 8.59594 25.1534 9.94234 25.1534C10.5886 25.1534 11.2483 25.103 11.9215 25.0019C12.6217 24.8757 13.2545 24.7117 13.82 24.5097L14.6682 28.9023C13.9411 29.18 13.1333 29.4198 12.2447 29.6219C11.3561 29.8237 10.2655 29.9247 8.97292 29.9247C7.33031 29.9247 5.97045 29.7228 4.89335 29.3189C3.81623 28.8897 2.95454 28.309 2.30826 27.577C1.66199 26.8197 1.20422 25.9107 0.934938 24.8504C0.692586 23.7901 0.571411 22.6162 0.571411 21.3288V4.59142Z" fill="#F0F0F0"/>
</g>
<defs>
<clipPath id="clip0_1319_157">
<rect width="144" height="30" fill="white"/>
</clipPath>
</defs>
</svg>
